<svg width="174" height="52" viewBox="0 0 174 52" fill="none" xmlns="http://www.w3.org/2000/svg">
<g opacity="0.6">
<path d="M1.11719 19.5C1.11719 19.0513 1.48096 18.6875 1.92969 18.6875H75.6517C75.8278 18.6875 75.9992 18.7447 76.14 18.8506L84.7841 25.3506C85.2163 25.6756 85.2163 26.3244 84.7841 26.6494L76.14 33.1494C75.9992 33.2553 75.8278 33.3125 75.6517 33.3125H1.92969C1.48096 33.3125 1.11719 32.9487 1.11719 32.5V19.5Z" fill="url(#paint0_linear_17697_336722)" stroke="url(#paint1_linear_17697_336722)" stroke-width="1.625"/>
</g>
<g opacity="0.6">
<path d="M172.883 19.5C172.883 19.0513 172.519 18.6875 172.07 18.6875H98.3483C98.1722 18.6875 98.0008 18.7447 97.86 18.8506L89.2159 25.3506C88.7837 25.6756 88.7837 26.3244 89.2159 26.6494L97.86 33.1494C98.0008 33.2553 98.1722 33.3125 98.3483 33.3125H172.07C172.519 33.3125 172.883 32.9487 172.883 32.5V19.5Z" fill="url(#paint2_linear_17697_336722)" stroke="url(#paint3_linear_17697_336722)" stroke-width="1.625"/>
</g>
<circle cx="87" cy="26" r="26" fill="white"/>
<path fill-rule="evenodd" clip-rule="evenodd" d="M108.665 25.9999C108.665 37.9661 98.9649 47.6666 86.9987 47.6666C75.0325 47.6666 65.332 37.9661 65.332 25.9999C65.332 14.0337 75.0325 4.33325 86.9987 4.33325C98.9649 4.33325 108.665 14.0337 108.665 25.9999ZM81.3272 23.9826C81.5916 24.0961 81.8307 24.2612 82.0305 24.4681L84.832 27.2696L91.9669 20.1348C92.1667 19.9279 92.4058 19.7628 92.6702 19.6492C92.9345 19.5357 93.2188 19.4759 93.5065 19.4734C93.7942 19.4709 94.0795 19.5257 94.3458 19.6347C94.612 19.7436 94.8539 19.9045 95.0574 20.1079C95.2608 20.3114 95.4217 20.5533 95.5306 20.8196C95.6396 21.0858 95.6944 21.3711 95.6919 21.6588C95.6894 21.9465 95.6296 22.2308 95.5161 22.4952C95.4025 22.7595 95.2375 22.9986 95.0305 23.1985L86.3639 31.8651C85.9575 32.2713 85.4065 32.4995 84.832 32.4995C84.2575 32.4995 83.7065 32.2713 83.3002 31.8651L78.9669 27.5318C78.7599 27.3319 78.5949 27.0928 78.4813 26.8285C78.3678 26.5642 78.308 26.2799 78.3055 25.9922C78.303 25.7045 78.3578 25.4192 78.4667 25.1529C78.5757 24.8866 78.7366 24.6447 78.94 24.4413C79.1434 24.2378 79.3854 24.077 79.6516 23.968C79.9179 23.8591 80.2032 23.8043 80.4909 23.8068C80.7786 23.8093 81.0629 23.869 81.3272 23.9826Z" fill="#22A06B"/>
<defs>
<linearGradient id="paint0_linear_17697_336722" x1="101.107" y1="26" x2="28.486" y2="26" gradientUnits="userSpaceOnUse">
<stop stop-color="#57D9A3"/>
<stop offset="1" stop-color="#57D9A3" stop-opacity="0"/>
</linearGradient>
<linearGradient id="paint1_linear_17697_336722" x1="87.001" y1="26" x2="55.3135" y2="26" gradientUnits="userSpaceOnUse">
<stop stop-color="#57D9A3"/>
<stop offset="1" stop-color="#57D9A3" stop-opacity="0"/>
</linearGradient>
<linearGradient id="paint2_linear_17697_336722" x1="72.8928" y1="26" x2="145.514" y2="26" gradientUnits="userSpaceOnUse">
<stop stop-color="#57D9A3"/>
<stop offset="1" stop-color="#57D9A3" stop-opacity="0"/>
</linearGradient>
<linearGradient id="paint3_linear_17697_336722" x1="86.999" y1="26" x2="118.687" y2="26" gradientUnits="userSpaceOnUse">
<stop stop-color="#57D9A3"/>
<stop offset="1" stop-color="#57D9A3" stop-opacity="0"/>
</linearGradient>
</defs>
</svg>
