<svg width="16" height="16" viewBox="0 0 16 16" fill="none" xmlns="http://www.w3.org/2000/svg">
<path fill-rule="evenodd" clip-rule="evenodd" d="M4.31699 10.6612L4.01204 11.1391L2.98149 12.7539L5.92538 12.3991L6.21142 12.3646L6.47197 12.4876C7.2 12.8374 7.91287 13.0067 8.77783 13C11.6965 13 14 10.7275 14 8C14 5.27252 11.6965 3 8.77783 3C5.859 3 3.55554 5.27254 3.55554 8C3.54807 8.80989 3.71385 9.46756 4.06361 10.1541L4.31699 10.6612ZM2.28514 13.8451L1 14L1.69636 12.9088L3.16907 10.6011C2.77588 9.81427 2.55554 8.93195 2.55554 8C2.55554 4.68628 5.34131 2 8.77783 2C12.2142 2 15 4.68628 15 8C15 11.3137 12.2142 14 8.77783 14C7.79736 14 6.87 13.7814 6.04504 13.3919L2.28514 13.8451Z" fill="#3572B0"/>
</svg>
