<svg width="290" height="187" viewBox="0 0 290 187" fill="none"
  xmlns="http://www.w3.org/2000/svg">
  <g clip-path="url(#clip0_12_7182)">
    <rect width="290" height="186.732" rx="2.82927" fill="white"/>
    <path d="M262.515 35.9128C262.515 35.1315 263.148 34.4982 263.929 34.4982H278.178C278.959 34.4982 279.592 35.1315 279.592 35.9128V41.5713C279.592 42.3526 278.959 42.986 278.178 42.986H263.929C263.148 42.986 262.515 42.3526 262.515 41.5713V35.9128Z" fill="white"/>
    <path d="M262.515 35.9128C262.515 35.1315 262.667 34.4982 262.856 34.4982H279.251C279.439 34.4982 279.592 35.1315 279.592 35.9128V41.5713C279.592 42.3526 279.439 42.986 279.251 42.986H262.856C262.667 42.986 262.515 42.3526 262.515 41.5713V35.9128Z" fill="white"/>
    <path d="M262.515 35.9128C262.515 35.1315 263.148 34.4982 263.929 34.4982H278.178C278.959 34.4982 279.592 35.1315 279.592 35.9128V41.5713C279.592 42.3526 278.959 42.986 278.178 42.986H263.929C263.148 42.986 262.515 42.3526 262.515 41.5713V35.9128Z" stroke="#EBECF0" stroke-width="0.707317"/>
    <path d="M262.515 35.9128C262.515 35.1315 262.667 34.4982 262.856 34.4982H279.251C279.439 34.4982 279.592 35.1315 279.592 35.9128V41.5713C279.592 42.3526 279.439 42.986 279.251 42.986H262.856C262.667 42.986 262.515 42.3526 262.515 41.5713V35.9128Z" stroke="#EBECF0" stroke-width="0.707317"/>
    <rect x="265.429" y="37.4514" width="11.0502" height="2.82927" rx="1.41463" fill="#091E42" fill-opacity="0.13"/>
    <path d="M242.298 35.9128C242.298 35.1315 242.932 34.4982 243.713 34.4982H257.961C258.742 34.4982 259.376 35.1315 259.376 35.9128V41.5713C259.376 42.3526 258.742 42.986 257.961 42.986H243.713C242.932 42.986 242.298 42.3526 242.298 41.5713V35.9128Z" fill="#E3E6FD"/>
    <path d="M242.298 35.9128C242.298 35.1315 242.451 34.4982 242.64 34.4982H259.034C259.223 34.4982 259.376 35.1315 259.376 35.9128V41.5713C259.376 42.3526 259.223 42.986 259.034 42.986H242.64C242.451 42.986 242.298 42.3526 242.298 41.5713V35.9128Z" fill="#E3E6FD"/>
    <path d="M242.298 35.9128C242.298 35.1315 242.932 34.4982 243.713 34.4982H257.961C258.742 34.4982 259.376 35.1315 259.376 35.9128V41.5713C259.376 42.3526 258.742 42.986 257.961 42.986H243.713C242.932 42.986 242.298 42.3526 242.298 41.5713V35.9128Z" stroke="#8A96DB" stroke-width="0.707317"/>
    <path d="M242.298 35.9128C242.298 35.1315 242.451 34.4982 242.64 34.4982H259.034C259.223 34.4982 259.376 35.1315 259.376 35.9128V41.5713C259.376 42.3526 259.223 42.986 259.034 42.986H242.64C242.451 42.986 242.298 42.3526 242.298 41.5713V35.9128Z" stroke="#8A96DB" stroke-width="0.707317"/>
    <rect x="245.213" y="37.4514" width="11.0502" height="2.82927" rx="1.41463" fill="#8A96DB"/>
    <path d="M222.082 35.9129C222.082 35.1316 222.715 34.4983 223.496 34.4983H237.745C238.526 34.4983 239.159 35.1316 239.159 35.9129V41.5715C239.159 42.3527 238.526 42.9861 237.745 42.9861H223.496C222.715 42.9861 222.082 42.3527 222.082 41.5715V35.9129Z" fill="white"/>
    <path d="M222.082 35.9129C222.082 35.1316 222.234 34.4983 222.423 34.4983H238.818C239.006 34.4983 239.159 35.1316 239.159 35.9129V41.5715C239.159 42.3527 239.006 42.9861 238.818 42.9861H222.423C222.234 42.9861 222.082 42.3527 222.082 41.5715V35.9129Z" fill="white"/>
    <path d="M222.082 35.9129C222.082 35.1316 222.715 34.4983 223.496 34.4983H237.745C238.526 34.4983 239.159 35.1316 239.159 35.9129V41.5715C239.159 42.3527 238.526 42.9861 237.745 42.9861H223.496C222.715 42.9861 222.082 42.3527 222.082 41.5715V35.9129Z" stroke="#EBECF0" stroke-width="0.707317"/>
    <path d="M222.082 35.9129C222.082 35.1316 222.234 34.4983 222.423 34.4983H238.818C239.006 34.4983 239.159 35.1316 239.159 35.9129V41.5715C239.159 42.3527 239.006 42.9861 238.818 42.9861H222.423C222.234 42.9861 222.082 42.3527 222.082 41.5715V35.9129Z" stroke="#EBECF0" stroke-width="0.707317"/>
    <rect x="224.996" y="37.4514" width="11.0502" height="2.82927" rx="1.41463" fill="#091E42" fill-opacity="0.13"/>
    <rect width="234.477" height="158.29" transform="translate(48.1045 52.8253)" fill="white"/>
    <rect x="53.7631" y="58.4839" width="42.439" height="4.2439" rx="1.41463" fill="#091E42" fill-opacity="0.31"/>
    <rect x="53.7631" y="67.04" width="182.488" height="0.42439" rx="0.212195" fill="#091E42" fill-opacity="0.04"/>
    <rect x="54.3021" y="72.3158" width="47.4349" height="30.1859" rx="0.875601" stroke="#EBECF0" stroke-width="1.07807"/>
    <rect x="53.7632" y="107.353" width="48.513" height="3.2342" rx="1.41463" fill="#091E42" fill-opacity="0.13"/>
    <rect x="111.44" y="72.3156" width="47.4349" height="30.1859" rx="0.875601" stroke="#EBECF0" stroke-width="1.07807"/>
    <rect x="110.901" y="107.353" width="48.513" height="3.2342" rx="1.41463" fill="#091E42" fill-opacity="0.13"/>
    <rect x="168.577" y="72.3156" width="47.4349" height="30.1859" rx="0.875601" stroke="#EBECF0" stroke-width="1.07807"/>
    <rect x="168.038" y="107.353" width="48.513" height="3.2342" rx="1.41463" fill="#091E42" fill-opacity="0.13"/>
    <rect x="225.715" y="72.3156" width="47.4349" height="30.1859" rx="0.875601" stroke="#EBECF0" stroke-width="1.07807"/>
    <rect x="225.176" y="107.353" width="48.513" height="3.2342" rx="1.41463" fill="#091E42" fill-opacity="0.13"/>
    <rect x="54.3022" y="119.751" width="47.4349" height="30.1859" rx="0.875601" stroke="#EBECF0" stroke-width="1.07807"/>
    <rect x="53.7632" y="154.788" width="48.513" height="3.2342" rx="1.41463" fill="#091E42" fill-opacity="0.13"/>
    <rect x="111.44" y="119.751" width="47.4349" height="30.1859" rx="0.875601" stroke="#EBECF0" stroke-width="1.07807"/>
    <rect x="110.901" y="154.788" width="48.513" height="3.2342" rx="1.41463" fill="#091E42" fill-opacity="0.13"/>
    <rect x="168.577" y="119.751" width="47.4349" height="30.1859" rx="0.875601" stroke="#EBECF0" stroke-width="1.07807"/>
    <rect x="168.038" y="154.788" width="48.513" height="3.2342" rx="1.41463" fill="#091E42" fill-opacity="0.13"/>
    <rect x="225.715" y="119.751" width="47.4349" height="30.1859" rx="0.875601" stroke="#EBECF0" stroke-width="1.07807"/>
    <rect x="225.176" y="154.788" width="48.513" height="3.2342" rx="1.41463" fill="#091E42" fill-opacity="0.13"/>
    <rect x="54.3022" y="167.186" width="47.4349" height="30.1859" rx="0.875601" stroke="#EBECF0" stroke-width="1.07807"/>
    <rect x="111.44" y="167.186" width="47.4349" height="30.1859" rx="0.875601" stroke="#EBECF0" stroke-width="1.07807"/>
    <rect x="168.577" y="167.186" width="47.4349" height="30.1859" rx="0.875601" stroke="#EBECF0" stroke-width="1.07807"/>
    <rect x="225.715" y="167.186" width="47.4349" height="30.1859" rx="0.875601" stroke="#EBECF0" stroke-width="1.07807"/>
    <rect x="23.0048" y="21.6108" width="42.439" height="4.2439" rx="1.41463" fill="#091E42" fill-opacity="0.31"/>
    <path d="M54.1699 42.3414V38.3545H56.7118V38.954H54.8828V40.1338H56.5543V40.714H54.8828V42.3414H54.1699ZM57.7839 38.8159C57.5573 38.8159 57.3722 38.6363 57.3722 38.4097C57.3722 38.1859 57.5573 38.0036 57.7839 38.0036C58.0077 38.0036 58.1928 38.1859 58.1928 38.4097C58.1928 38.6363 58.0077 38.8159 57.7839 38.8159ZM57.4385 42.3414V39.3215H58.1265V42.3414H57.4385ZM60.2705 43.4024C59.4748 43.4024 58.9968 43.0626 58.9277 42.5542L58.9305 42.5459H59.6185L59.6212 42.5542C59.6682 42.7476 59.8975 42.883 60.2816 42.883C60.7513 42.883 61.0248 42.6647 61.0248 42.2779V41.7004H60.9778C60.8038 42.0237 60.475 42.2005 60.0578 42.2005C59.2924 42.2005 58.8172 41.6092 58.8172 40.7527V40.7472C58.8172 39.8741 59.2924 39.2718 60.0716 39.2718C60.4888 39.2718 60.8148 39.4762 60.9861 39.8189H61.022V39.3215H61.71V42.2668C61.71 42.9631 61.1519 43.4024 60.2705 43.4024ZM60.2705 41.6535C60.7485 41.6535 61.0359 41.286 61.0359 40.7527V40.7472C61.0359 40.214 60.7457 39.8437 60.2705 39.8437C59.7925 39.8437 59.5218 40.214 59.5218 40.7472V40.7527C59.5218 41.286 59.7925 41.6535 60.2705 41.6535ZM62.5527 42.3414V39.3215H63.2407V39.7912H63.2877C63.4175 39.4541 63.7215 39.2635 64.1166 39.2635C64.5255 39.2635 64.8239 39.4735 64.9537 39.8078H65.0007C65.1471 39.479 65.4953 39.2635 65.9152 39.2635C66.5231 39.2635 66.8878 39.6365 66.8878 40.2637V42.3414H66.1998V40.4322C66.1998 40.0399 66.0202 39.841 65.6528 39.841C65.2936 39.841 65.0615 40.109 65.0615 40.4543V42.3414H64.3735V40.3825C64.3735 40.0482 64.1663 39.841 63.8292 39.841C63.4894 39.841 63.2407 40.1283 63.2407 40.5041V42.3414H62.5527ZM68.5262 42.3912C67.9515 42.3912 67.5343 42.0375 67.5343 41.4877V41.4822C67.5343 40.9434 67.946 40.6284 68.681 40.5842L69.4574 40.5372V40.2775C69.4574 39.9763 69.2612 39.8106 68.8909 39.8106C68.576 39.8106 68.3715 39.9238 68.3024 40.1228L68.2997 40.1338H67.6504L67.6531 40.109C67.7194 39.6006 68.2057 39.2635 68.9241 39.2635C69.7005 39.2635 70.137 39.6393 70.137 40.2775V42.3414H69.4574V41.927H69.4104C69.2446 42.2199 68.9241 42.3912 68.5262 42.3912ZM68.214 41.4545C68.214 41.7115 68.4323 41.8634 68.7362 41.8634C69.1507 41.8634 69.4574 41.5927 69.4574 41.2335V40.9903L68.7777 41.0346C68.3936 41.0594 68.214 41.2003 68.214 41.449V41.4545ZM73.6598 42.3552C72.9663 42.3552 72.6817 42.1232 72.6817 41.5402V39.8548H72.212V39.3215H72.6817V38.581H73.3807V39.3215H74.019V39.8548H73.3807V41.3772C73.3807 41.6783 73.4996 41.8054 73.7869 41.8054C73.8836 41.8054 73.9361 41.8027 74.019 41.7944V42.3249C73.9195 42.3442 73.7924 42.3552 73.6598 42.3552ZM75.9696 42.4022C75.0717 42.4022 74.5274 41.7999 74.5274 40.8384V40.8356C74.5274 39.8852 75.0772 39.2635 75.9365 39.2635C76.7958 39.2635 77.3263 39.8658 77.3263 40.7776V41.0042H75.2154C75.2236 41.5457 75.5165 41.8607 75.9835 41.8607C76.3565 41.8607 76.5692 41.6728 76.6355 41.5346L76.6438 41.5153H77.2986L77.2903 41.5402C77.1936 41.9298 76.7902 42.4022 75.9696 42.4022ZM75.9448 39.8023C75.5607 39.8023 75.2734 40.062 75.2209 40.5427H76.6549C76.6079 40.0482 76.3288 39.8023 75.9448 39.8023ZM78.8376 42.3912C78.2629 42.3912 77.8457 42.0375 77.8457 41.4877V41.4822C77.8457 40.9434 78.2574 40.6284 78.9923 40.5842L79.7687 40.5372V40.2775C79.7687 39.9763 79.5725 39.8106 79.2023 39.8106C78.8873 39.8106 78.6829 39.9238 78.6138 40.1228L78.611 40.1338H77.9617L77.9645 40.109C78.0308 39.6006 78.5171 39.2635 79.2355 39.2635C80.0118 39.2635 80.4484 39.6393 80.4484 40.2775V42.3414H79.7687V41.927H79.7217C79.556 42.2199 79.2355 42.3912 78.8376 42.3912ZM78.5254 41.4545C78.5254 41.7115 78.7437 41.8634 79.0476 41.8634C79.462 41.8634 79.7687 41.5927 79.7687 41.2335V40.9903L79.089 41.0346C78.705 41.0594 78.5254 41.2003 78.5254 41.449V41.4545ZM81.2745 42.3414V39.3215H81.9625V39.7912H82.0095C82.1393 39.4541 82.4433 39.2635 82.8384 39.2635C83.2473 39.2635 83.5457 39.4735 83.6755 39.8078H83.7225C83.8689 39.479 84.2171 39.2635 84.637 39.2635C85.2449 39.2635 85.6096 39.6365 85.6096 40.2637V42.3414H84.9216V40.4322C84.9216 40.0399 84.742 39.841 84.3746 39.841C84.0154 39.841 83.7833 40.109 83.7833 40.4543V42.3414H83.0953V40.3825C83.0953 40.0482 82.8881 39.841 82.551 39.841C82.2112 39.841 81.9625 40.1283 81.9625 40.5041V42.3414H81.2745Z" fill="#091E42"/>
    <rect width="290" height="11.3171" fill="#25292E"/>
    <path d="M10.9301 5.38987C10.9301 5.07218 11.0563 4.7675 11.2809 4.54286C11.5055 4.31822 11.8102 4.19202 12.1279 4.19202C12.4456 4.19202 12.7503 4.31822 12.9749 4.54286C13.1996 4.7675 13.3258 5.07218 13.3258 5.38987C13.3258 5.70756 13.1996 6.01224 12.9749 6.23688C12.7503 6.46152 12.4456 6.58772 12.1279 6.58772C11.8102 6.58772 11.5055 6.46152 11.2809 6.23688C11.0563 6.01224 10.9301 5.70756 10.9301 5.38987Z" fill="#1ABCFE"/>
    <path d="M8.53491 7.78611C8.53491 7.46842 8.66111 7.16374 8.88575 6.9391C9.1104 6.71446 9.41507 6.58826 9.73276 6.58826H10.9306V7.78611C10.9306 8.1038 10.8044 8.40848 10.5798 8.63312C10.3551 8.85776 10.0505 8.98396 9.73276 8.98396C9.41507 8.98396 9.1104 8.85776 8.88575 8.63312C8.66111 8.40848 8.53491 8.1038 8.53491 7.78611V7.78611Z" fill="#0ACF83"/>
    <path d="M10.9301 1.79639V4.19209H12.1279C12.4456 4.19209 12.7503 4.06589 12.9749 3.84125C13.1996 3.61661 13.3258 3.31193 13.3258 2.99424C13.3258 2.67655 13.1996 2.37187 12.9749 2.14723C12.7503 1.92259 12.4456 1.79639 12.1279 1.79639H10.9301Z" fill="#FF7262"/>
    <path d="M8.53491 2.99424C8.53491 3.31193 8.66111 3.61661 8.88575 3.84125C9.1104 4.06589 9.41507 4.19209 9.73276 4.19209H10.9306V1.79639H9.73276C9.41507 1.79639 9.1104 1.92259 8.88575 2.14723C8.66111 2.37187 8.53491 2.67655 8.53491 2.99424V2.99424Z" fill="#F24E1E"/>
    <path d="M8.53491 5.38987C8.53491 5.70756 8.66111 6.01224 8.88575 6.23688C9.1104 6.46152 9.41507 6.58772 9.73276 6.58772H10.9306V4.19202H9.73276C9.41507 4.19202 9.1104 4.31822 8.88575 4.54286C8.66111 4.7675 8.53491 5.07218 8.53491 5.38987V5.38987Z" fill="#A259FF"/>
    <rect x="4.2439" y="38.1951" width="19.8049" height="4.2439" rx="1.41463" fill="#EBEDF0"/>
    <rect x="4.24414" y="53.7562" width="19.8049" height="4.2439" rx="1.41463" fill="#EBEDF0"/>
    <path d="M5.34087 73.3171V70.8132H4.43408V70.3701H6.77663V70.8132H5.86779V73.3171H5.34087ZM7.83456 73.3621C7.1708 73.3621 6.76846 72.9168 6.76846 72.2061V72.2041C6.76846 71.5015 7.17489 71.042 7.81005 71.042C8.44521 71.042 8.83734 71.4872 8.83734 72.1612V72.3287H7.277C7.28313 72.7289 7.49962 72.9618 7.84477 72.9618C8.12048 72.9618 8.27774 72.8229 8.32676 72.7208L8.33289 72.7065H8.81692L8.81079 72.7249C8.73931 73.0128 8.44113 73.3621 7.83456 73.3621ZM7.81618 71.4402C7.53229 71.4402 7.31989 71.6322 7.28109 71.9876H8.34106C8.30634 71.622 8.10006 71.4402 7.81618 71.4402ZM9.9545 73.3539C9.52969 73.3539 9.2213 73.0925 9.2213 72.6861V72.682C9.2213 72.2837 9.52561 72.0509 10.0689 72.0182L10.6428 71.9835V71.7915C10.6428 71.5689 10.4978 71.4464 10.2241 71.4464C9.99126 71.4464 9.84013 71.5301 9.78907 71.6771L9.78703 71.6853H9.30708L9.30912 71.6669C9.35814 71.2911 9.71759 71.042 10.2486 71.042C10.8225 71.042 11.1452 71.3197 11.1452 71.7915V73.3171H10.6428V73.0108H10.608C10.4855 73.2273 10.2486 73.3539 9.9545 73.3539ZM9.72371 72.6616C9.72371 72.8515 9.88506 72.9638 10.1097 72.9638C10.4161 72.9638 10.6428 72.7637 10.6428 72.4982V72.3184L10.1403 72.3511C9.85646 72.3695 9.72371 72.4737 9.72371 72.6575V72.6616ZM11.7558 73.3171V71.0849H12.2644V71.4321H12.2991C12.3951 71.1829 12.6197 71.042 12.9118 71.042C13.2141 71.042 13.4346 71.1972 13.5306 71.4443H13.5653C13.6736 71.2013 13.9309 71.042 14.2413 71.042C14.6907 71.042 14.9602 71.3177 14.9602 71.7813V73.3171H14.4517V71.9059C14.4517 71.6159 14.319 71.4688 14.0473 71.4688C13.7818 71.4688 13.6103 71.6669 13.6103 71.9222V73.3171H13.1017V71.8691C13.1017 71.622 12.9486 71.4688 12.6994 71.4688C12.4482 71.4688 12.2644 71.6812 12.2644 71.959V73.3171H11.7558Z" fill="#091E42"/>
    <rect x="4.24414" y="84.8169" width="19.8049" height="4.2439" rx="1.41463" fill="#EBEDF0"/>
    <rect x="4.24414" y="100.378" width="19.8049" height="4.2439" rx="1.41463" fill="#EBEDF0"/>
    <rect x="4.24414" y="115.939" width="19.8049" height="4.2439" rx="1.41463" fill="#EBEDF0"/>
    <rect x="4.2439" y="131.5" width="19.8049" height="4.2439" rx="1.41463" fill="#EBEDF0"/>
    <circle cx="10.8053" cy="24.0507" r="6.6226" fill="#EBEDF0"/>
    <rect x="-17" y="-7" width="323" height="197" fill="#292929" fill-opacity="0.5"/>
    <rect x="103.494" y="43.4496" width="81.9331" height="99.6066" rx="1.41463" fill="white"/>
    <rect x="107.806" y="47.7617" width="16.171" height="3.2342" rx="1.41463" fill="#091E42" fill-opacity="0.31"/>
    <rect x="126.134" y="47.7618" width="16.171" height="3.2342" rx="1.41463" fill="#091E42" fill-opacity="0.31"/>
    <rect x="107.806" y="53.1522" width="182.488" height="0.42439" rx="0.212195" fill="#091E42" fill-opacity="0.04"/>
    <rect x="107.807" y="57.8888" width="13" height="13" rx="2" fill="#091E42" fill-opacity="0.13"/>
    <rect x="123" y="73.9996" width="60" height="10" rx="1.41463" fill="#E3E6FD" stroke="#8A96DB" stroke-width="0.707317"/>
    <rect x="124.807" y="57.8888" width="22.6394" height="3.2342" rx="1.41463" fill="#091E42" fill-opacity="0.13"/>
    <rect x="157.149" y="57.8888" width="22.6394" height="3.2342" rx="1.41463" fill="#091E42" fill-opacity="0.13"/>
    <rect x="124.807" y="67.5914" width="22.6394" height="3.2342" rx="1.41463" fill="#091E42" fill-opacity="0.13"/>
    <rect x="157.149" y="67.5914" width="22.6394" height="3.2342" rx="1.41463" fill="#091E42" fill-opacity="0.13"/>
    <rect x="124.807" y="77.2941" width="22.6394" height="3.2342" rx="1.41463" fill="#091E42" fill-opacity="0.13"/>
    <rect x="157.149" y="77.2941" width="22.6394" height="3.2342" rx="1.41463" fill="#8A96DB"/>
    <rect x="124.807" y="86.9967" width="22.6394" height="3.2342" rx="1.41463" fill="#091E42" fill-opacity="0.13"/>
    <rect x="157.149" y="86.9967" width="22.6394" height="3.2342" rx="1.41463" fill="#091E42" fill-opacity="0.13"/>
    <rect x="124.807" y="96.6992" width="22.6394" height="3.2342" rx="1.41463" fill="#091E42" fill-opacity="0.13"/>
    <rect x="157.149" y="96.6991" width="22.6394" height="3.2342" rx="1.41463" fill="#091E42" fill-opacity="0.13"/>
    <rect x="124.807" y="106.402" width="22.6394" height="3.2342" rx="1.41463" fill="#091E42" fill-opacity="0.13"/>
    <rect x="157.149" y="106.402" width="22.6394" height="3.2342" rx="1.41463" fill="#091E42" fill-opacity="0.13"/>
    <rect x="124.807" y="116.104" width="22.6394" height="3.2342" rx="1.41463" fill="#091E42" fill-opacity="0.13"/>
    <rect x="157.149" y="116.104" width="22.6394" height="3.2342" rx="1.41463" fill="#091E42" fill-opacity="0.13"/>
    <rect x="124.807" y="125.807" width="22.6394" height="3.2342" rx="1.41463" fill="#091E42" fill-opacity="0.13"/>
    <rect x="157.149" y="125.807" width="22.6394" height="3.2342" rx="1.41463" fill="#091E42" fill-opacity="0.13"/>
    <rect x="124.807" y="135.51" width="22.6394" height="3.2342" rx="1.41463" fill="#091E42" fill-opacity="0.13"/>
    <rect x="157.149" y="135.509" width="22.6394" height="3.2342" rx="1.41463" fill="#091E42" fill-opacity="0.13"/>
    <rect x="103.494" y="43.4496" width="81.9331" height="99.6066" rx="1.41463" stroke="#EBECF0" stroke-width="0.707317"/>
  </g>
  <defs>
    <clipPath id="clip0_12_7182">
      <rect width="290" height="186.732" rx="2.82927" fill="white"/>
    </clipPath>
  </defs>
</svg>