<svg xmlns="http://www.w3.org/2000/svg" width="292" height="189" viewBox="0 0 292 189" fill="none">
<g clip-path="url(#clip0_71_2766)">
<rect x="1" y="1" width="290" height="186.732" rx="2.82927" fill="white"/>
<circle cx="93.5" cy="41.5" r="4.5" fill="#E3E6FD"/>
<path d="M223.082 36.9127C223.082 36.1314 223.715 35.498 224.497 35.498H238.745C239.526 35.498 240.16 36.1314 240.16 36.9127V42.5712C240.16 43.3525 239.526 43.9859 238.745 43.9859H224.497C223.715 43.9859 223.082 43.3525 223.082 42.5712V36.9127Z" fill="white"/>
<path d="M223.082 36.9127C223.082 36.1314 223.235 35.498 223.424 35.498H239.818C240.007 35.498 240.16 36.1314 240.16 36.9127V42.5712C240.16 43.3525 240.007 43.9859 239.818 43.9859H223.424C223.235 43.9859 223.082 43.3525 223.082 42.5712V36.9127Z" fill="white"/>
<path d="M223.082 36.9127C223.082 36.1314 223.715 35.498 224.497 35.498H238.745C239.526 35.498 240.16 36.1314 240.16 36.9127V42.5712C240.16 43.3525 239.526 43.9859 238.745 43.9859H224.497C223.715 43.9859 223.082 43.3525 223.082 42.5712V36.9127Z" stroke="#EBECF0" stroke-width="0.707317"/>
<path d="M223.082 36.9127C223.082 36.1314 223.235 35.498 223.424 35.498H239.818C240.007 35.498 240.16 36.1314 240.16 36.9127V42.5712C240.16 43.3525 240.007 43.9859 239.818 43.9859H223.424C223.235 43.9859 223.082 43.3525 223.082 42.5712V36.9127Z" stroke="#EBECF0" stroke-width="0.707317"/>
<rect x="225.997" y="38.4512" width="11.0502" height="2.82927" rx="1.41463" fill="#091E42" fill-opacity="0.13"/>
<path d="M243.16 36.9127C243.16 36.1314 243.793 35.498 244.574 35.498H258.823C259.604 35.498 260.237 36.1314 260.237 36.9127V42.5712C260.237 43.3525 259.604 43.9859 258.823 43.9859H244.574C243.793 43.9859 243.16 43.3525 243.16 42.5712V36.9127Z" fill="white"/>
<path d="M243.16 36.9127C243.16 36.1314 243.313 35.498 243.501 35.498H259.896C260.084 35.498 260.237 36.1314 260.237 36.9127V42.5712C260.237 43.3525 260.084 43.9859 259.896 43.9859H243.501C243.313 43.9859 243.16 43.3525 243.16 42.5712V36.9127Z" fill="white"/>
<path d="M243.16 36.9127C243.16 36.1314 243.793 35.498 244.574 35.498H258.823C259.604 35.498 260.237 36.1314 260.237 36.9127V42.5712C260.237 43.3525 259.604 43.9859 258.823 43.9859H244.574C243.793 43.9859 243.16 43.3525 243.16 42.5712V36.9127Z" stroke="#EBECF0" stroke-width="0.707317"/>
<path d="M243.16 36.9127C243.16 36.1314 243.313 35.498 243.501 35.498H259.896C260.084 35.498 260.237 36.1314 260.237 36.9127V42.5712C260.237 43.3525 260.084 43.9859 259.896 43.9859H243.501C243.313 43.9859 243.16 43.3525 243.16 42.5712V36.9127Z" stroke="#EBECF0" stroke-width="0.707317"/>
<rect x="246.074" y="38.4512" width="11.0502" height="2.82927" rx="1.41463" fill="#091E42" fill-opacity="0.13"/>
<path d="M263.237 36.9127C263.237 36.1314 263.871 35.498 264.652 35.498H278.9C279.682 35.498 280.315 36.1314 280.315 36.9127V42.5712C280.315 43.3525 279.682 43.9859 278.9 43.9859H264.652C263.871 43.9859 263.237 43.3525 263.237 42.5712V36.9127Z" fill="white"/>
<path d="M263.237 36.9127C263.237 36.1314 263.39 35.498 263.579 35.498H279.973C280.162 35.498 280.315 36.1314 280.315 36.9127V42.5712C280.315 43.3525 280.162 43.9859 279.973 43.9859H263.579C263.39 43.9859 263.237 43.3525 263.237 42.5712V36.9127Z" fill="white"/>
<path d="M263.237 36.9127C263.237 36.1314 263.871 35.498 264.652 35.498H278.9C279.682 35.498 280.315 36.1314 280.315 36.9127V42.5712C280.315 43.3525 279.682 43.9859 278.9 43.9859H264.652C263.871 43.9859 263.237 43.3525 263.237 42.5712V36.9127Z" stroke="#EBECF0" stroke-width="0.707317"/>
<path d="M263.237 36.9127C263.237 36.1314 263.39 35.498 263.579 35.498H279.973C280.162 35.498 280.315 36.1314 280.315 36.9127V42.5712C280.315 43.3525 280.162 43.9859 279.973 43.9859H263.579C263.39 43.9859 263.237 43.3525 263.237 42.5712V36.9127Z" stroke="#EBECF0" stroke-width="0.707317"/>
<rect x="266.152" y="38.4512" width="11.0502" height="2.82927" rx="1.41463" fill="#091E42" fill-opacity="0.13"/>
<rect width="234.477" height="158.29" transform="translate(49.1045 53.8252)" fill="white"/>
<rect x="54.7629" y="59.4836" width="42.439" height="4.2439" rx="1.41463" fill="#091E42" fill-opacity="0.31"/>
<rect x="54.7629" y="68.0398" width="182.488" height="0.42439" rx="0.212195" fill="#091E42" fill-opacity="0.04"/>
<rect x="55.302" y="73.3156" width="47.4349" height="30.1859" rx="0.875601" stroke="#EBECF0" stroke-width="1.07807"/>
<rect x="54.7632" y="108.353" width="48.513" height="3.2342" rx="1.41463" fill="#091E42" fill-opacity="0.13"/>
<rect x="112.44" y="73.3154" width="47.4349" height="30.1859" rx="0.875601" stroke="#EBECF0" stroke-width="1.07807"/>
<rect x="111.901" y="108.353" width="48.513" height="3.2342" rx="1.41463" fill="#091E42" fill-opacity="0.13"/>
<rect x="169.577" y="73.3154" width="47.4349" height="30.1859" rx="0.875601" stroke="#EBECF0" stroke-width="1.07807"/>
<rect x="169.038" y="108.353" width="48.513" height="3.2342" rx="1.41463" fill="#091E42" fill-opacity="0.13"/>
<rect x="226.715" y="73.3154" width="47.4349" height="30.1859" rx="0.875601" stroke="#EBECF0" stroke-width="1.07807"/>
<rect x="226.176" y="108.353" width="48.513" height="3.2342" rx="1.41463" fill="#091E42" fill-opacity="0.13"/>
<rect x="55.3022" y="120.75" width="47.4349" height="30.1859" rx="0.875601" stroke="#EBECF0" stroke-width="1.07807"/>
<rect x="54.7632" y="155.788" width="48.513" height="3.2342" rx="1.41463" fill="#091E42" fill-opacity="0.13"/>
<rect x="112.44" y="120.75" width="47.4349" height="30.1859" rx="0.875601" stroke="#EBECF0" stroke-width="1.07807"/>
<rect x="111.901" y="155.788" width="48.513" height="3.2342" rx="1.41463" fill="#091E42" fill-opacity="0.13"/>
<rect x="169.577" y="120.75" width="47.4349" height="30.1859" rx="0.875601" stroke="#EBECF0" stroke-width="1.07807"/>
<rect x="169.038" y="155.788" width="48.513" height="3.2342" rx="1.41463" fill="#091E42" fill-opacity="0.13"/>
<rect x="226.715" y="120.75" width="47.4349" height="30.1859" rx="0.875601" stroke="#EBECF0" stroke-width="1.07807"/>
<rect x="226.176" y="155.788" width="48.513" height="3.2342" rx="1.41463" fill="#091E42" fill-opacity="0.13"/>
<rect x="55.3022" y="168.186" width="47.4349" height="30.1859" rx="0.875601" stroke="#EBECF0" stroke-width="1.07807"/>
<rect x="112.44" y="168.186" width="47.4349" height="30.1859" rx="0.875601" stroke="#EBECF0" stroke-width="1.07807"/>
<rect x="169.577" y="168.186" width="47.4349" height="30.1859" rx="0.875601" stroke="#EBECF0" stroke-width="1.07807"/>
<rect x="226.715" y="168.186" width="47.4349" height="30.1859" rx="0.875601" stroke="#EBECF0" stroke-width="1.07807"/>
<rect x="24.0046" y="22.6108" width="42.439" height="4.2439" rx="1.41463" fill="#091E42" fill-opacity="0.31"/>
<path d="M55.1698 43.3413V39.3544H57.7117V39.9539H55.8826V41.1337H57.5542V41.7139H55.8826V43.3413H55.1698ZM58.7837 39.8158C58.5572 39.8158 58.3721 39.6362 58.3721 39.4096C58.3721 39.1858 58.5572 39.0035 58.7837 39.0035C59.0075 39.0035 59.1927 39.1858 59.1927 39.4096C59.1927 39.6362 59.0075 39.8158 58.7837 39.8158ZM58.4384 43.3413V40.3214H59.1263V43.3413H58.4384ZM61.2704 44.4023C60.4747 44.4023 59.9967 44.0624 59.9276 43.5541L59.9304 43.5458H60.6183L60.6211 43.5541C60.6681 43.7475 60.8974 43.8828 61.2814 43.8828C61.7511 43.8828 62.0247 43.6646 62.0247 43.2778V42.7003H61.9777C61.8036 43.0236 61.4749 43.2004 61.0576 43.2004C60.2923 43.2004 59.8171 42.6091 59.8171 41.7526V41.7471C59.8171 40.874 60.2923 40.2717 61.0715 40.2717C61.4887 40.2717 61.8147 40.4761 61.986 40.8187H62.0219V40.3214H62.7099V43.2667C62.7099 43.963 62.1518 44.4023 61.2704 44.4023ZM61.2704 42.6533C61.7484 42.6533 62.0357 42.2859 62.0357 41.7526V41.7471C62.0357 41.2138 61.7456 40.8436 61.2704 40.8436C60.7924 40.8436 60.5216 41.2138 60.5216 41.7471V41.7526C60.5216 42.2859 60.7924 42.6533 61.2704 42.6533ZM63.5526 43.3413V40.3214H64.2406V40.7911H64.2875C64.4174 40.454 64.7213 40.2634 65.1164 40.2634C65.5253 40.2634 65.8237 40.4734 65.9536 40.8077H66.0006C66.147 40.4789 66.4951 40.2634 66.9151 40.2634C67.523 40.2634 67.8877 40.6364 67.8877 41.2636V43.3413H67.1997V41.4321C67.1997 41.0398 67.0201 40.8408 66.6526 40.8408C66.2935 40.8408 66.0614 41.1088 66.0614 41.4542V43.3413H65.3734V41.3824C65.3734 41.0481 65.1662 40.8408 64.8291 40.8408C64.4892 40.8408 64.2406 41.1282 64.2406 41.5039V43.3413H63.5526ZM69.5261 43.391C68.9514 43.391 68.5342 43.0374 68.5342 42.4876V42.482C68.5342 41.9433 68.9459 41.6283 69.6808 41.5841L70.4572 41.5371V41.2774C70.4572 40.9762 70.2611 40.8104 69.8908 40.8104C69.5758 40.8104 69.3714 40.9237 69.3023 41.1227L69.2995 41.1337H68.6503L68.653 41.1088C68.7193 40.6005 69.2056 40.2634 69.924 40.2634C70.7004 40.2634 71.1369 40.6391 71.1369 41.2774V43.3413H70.4572V42.9269H70.4103C70.2445 43.2197 69.924 43.391 69.5261 43.391ZM69.2139 42.4544C69.2139 42.7114 69.4322 42.8633 69.7361 42.8633C70.1505 42.8633 70.4572 42.5925 70.4572 42.2334V41.9902L69.7775 42.0344C69.3935 42.0593 69.2139 42.2002 69.2139 42.4489V42.4544ZM74.6597 43.3551C73.9662 43.3551 73.6816 43.123 73.6816 42.5401V40.8546H73.2119V40.3214H73.6816V39.5809H74.3806V40.3214H75.0189V40.8546H74.3806V42.377C74.3806 42.6782 74.4994 42.8053 74.7868 42.8053C74.8835 42.8053 74.936 42.8025 75.0189 42.7942V43.3247C74.9194 43.3441 74.7923 43.3551 74.6597 43.3551ZM76.9695 43.4021C76.0716 43.4021 75.5273 42.7998 75.5273 41.8383V41.8355C75.5273 40.885 76.0771 40.2634 76.9364 40.2634C77.7956 40.2634 78.3261 40.8657 78.3261 41.7775V42.004H76.2152C76.2235 42.5456 76.5164 42.8606 76.9833 42.8606C77.3563 42.8606 77.5691 42.6727 77.6354 42.5345L77.6437 42.5152H78.2985L78.2902 42.5401C78.1935 42.9296 77.7901 43.4021 76.9695 43.4021ZM76.9447 40.8022C76.5606 40.8022 76.2733 41.0619 76.2208 41.5426H77.6547C77.6078 41.0481 77.3287 40.8022 76.9447 40.8022ZM79.8375 43.391C79.2628 43.391 78.8456 43.0374 78.8456 42.4876V42.482C78.8456 41.9433 79.2572 41.6283 79.9922 41.5841L80.7686 41.5371V41.2774C80.7686 40.9762 80.5724 40.8104 80.2022 40.8104C79.8872 40.8104 79.6827 40.9237 79.6137 41.1227L79.6109 41.1337H78.9616L78.9644 41.1088C79.0307 40.6005 79.517 40.2634 80.2353 40.2634C81.0117 40.2634 81.4483 40.6391 81.4483 41.2774V43.3413H80.7686V42.9269H80.7216C80.5558 43.2197 80.2353 43.391 79.8375 43.391ZM79.5253 42.4544C79.5253 42.7114 79.7435 42.8633 80.0475 42.8633C80.4619 42.8633 80.7686 42.5925 80.7686 42.2334V41.9902L80.0889 42.0344C79.7048 42.0593 79.5253 42.2002 79.5253 42.4489V42.4544ZM82.2744 43.3413V40.3214H82.9624V40.7911H83.0093C83.1392 40.454 83.4431 40.2634 83.8382 40.2634C84.2472 40.2634 84.5455 40.4734 84.6754 40.8077H84.7224C84.8688 40.4789 85.2169 40.2634 85.6369 40.2634C86.2448 40.2634 86.6095 40.6364 86.6095 41.2636V43.3413H85.9215V41.4321C85.9215 41.0398 85.7419 40.8408 85.3744 40.8408C85.0153 40.8408 84.7832 41.1088 84.7832 41.4542V43.3413H84.0952V41.3824C84.0952 41.0481 83.888 40.8408 83.5509 40.8408C83.211 40.8408 82.9624 41.1282 82.9624 41.5039V43.3413H82.2744Z" fill="#091E42"/>
<rect x="1" y="1" width="290" height="11.3171" fill="#25292E"/>
<path d="M11.9309 6.39048C11.9309 6.07279 12.0571 5.76811 12.2818 5.54347C12.5064 5.31883 12.8111 5.19263 13.1288 5.19263C13.4465 5.19263 13.7511 5.31883 13.9758 5.54347C14.2004 5.76811 14.3266 6.07279 14.3266 6.39048C14.3266 6.70817 14.2004 7.01285 13.9758 7.23749C13.7511 7.46213 13.4465 7.58833 13.1288 7.58833C12.8111 7.58833 12.5064 7.46213 12.2818 7.23749C12.0571 7.01285 11.9309 6.70817 11.9309 6.39048Z" fill="#1ABCFE"/>
<path d="M9.53516 8.78599C9.53516 8.4683 9.66136 8.16362 9.886 7.93898C10.1106 7.71434 10.4153 7.58813 10.733 7.58813H11.9309V8.78599C11.9309 9.10368 11.8047 9.40836 11.58 9.633C11.3554 9.85764 11.0507 9.98384 10.733 9.98384C10.4153 9.98384 10.1106 9.85764 9.886 9.633C9.66136 9.40836 9.53516 9.10368 9.53516 8.78599V8.78599Z" fill="#0ACF83"/>
<path d="M11.9309 2.79688V5.19258H13.1288C13.4465 5.19258 13.7511 5.06638 13.9758 4.84174C14.2004 4.6171 14.3266 4.31242 14.3266 3.99473C14.3266 3.67704 14.2004 3.37236 13.9758 3.14772C13.7511 2.92308 13.4465 2.79688 13.1288 2.79688H11.9309Z" fill="#FF7262"/>
<path d="M9.53516 3.99473C9.53516 4.31242 9.66136 4.6171 9.886 4.84174C10.1106 5.06638 10.4153 5.19258 10.733 5.19258H11.9309V2.79688H10.733C10.4153 2.79688 10.1106 2.92308 9.886 3.14772C9.66136 3.37236 9.53516 3.67704 9.53516 3.99473V3.99473Z" fill="#F24E1E"/>
<path d="M9.53516 6.39048C9.53516 6.70817 9.66136 7.01285 9.886 7.23749C10.1106 7.46213 10.4153 7.58833 10.733 7.58833H11.9309V5.19263H10.733C10.4153 5.19263 10.1106 5.31883 9.886 5.54347C9.66136 5.76811 9.53516 6.07279 9.53516 6.39048V6.39048Z" fill="#A259FF"/>
<rect x="5.2439" y="39.1951" width="19.8049" height="4.2439" rx="1.41463" fill="#EBEDF0"/>
<rect x="5.24414" y="54.7561" width="19.8049" height="4.2439" rx="1.41463" fill="#EBEDF0"/>
<path d="M6.34087 74.3171V71.8132H5.43408V71.3701H7.77663V71.8132H6.86779V74.3171H6.34087ZM8.83456 74.3621C8.1708 74.3621 7.76846 73.9168 7.76846 73.2061V73.2041C7.76846 72.5015 8.17489 72.042 8.81005 72.042C9.44521 72.042 9.83734 72.4872 9.83734 73.1612V73.3287H8.277C8.28313 73.7289 8.49962 73.9618 8.84477 73.9618C9.12048 73.9618 9.27774 73.8229 9.32676 73.7208L9.33289 73.7065H9.81692L9.81079 73.7249C9.73931 74.0128 9.44113 74.3621 8.83456 74.3621ZM8.81618 72.4402C8.53229 72.4402 8.31989 72.6322 8.28109 72.9876H9.34106C9.30634 72.622 9.10006 72.4402 8.81618 72.4402ZM10.9545 74.3539C10.5297 74.3539 10.2213 74.0925 10.2213 73.6861V73.682C10.2213 73.2837 10.5256 73.0509 11.0689 73.0182L11.6428 72.9835V72.7915C11.6428 72.5689 11.4978 72.4464 11.2241 72.4464C10.9913 72.4464 10.8401 72.5301 10.7891 72.6771L10.787 72.6853H10.3071L10.3091 72.6669C10.3581 72.2911 10.7176 72.042 11.2486 72.042C11.8225 72.042 12.1452 72.3197 12.1452 72.7915V74.3171H11.6428V74.0108H11.608C11.4855 74.2273 11.2486 74.3539 10.9545 74.3539ZM10.7237 73.6616C10.7237 73.8515 10.8851 73.9638 11.1097 73.9638C11.4161 73.9638 11.6428 73.7637 11.6428 73.4982V73.3184L11.1403 73.3511C10.8565 73.3695 10.7237 73.4737 10.7237 73.6575V73.6616ZM12.7558 74.3171V72.0849H13.2644V72.4321H13.2991C13.3951 72.1829 13.6197 72.042 13.9118 72.042C14.2141 72.042 14.4346 72.1972 14.5306 72.4443H14.5653C14.6736 72.2013 14.9309 72.042 15.2413 72.042C15.6907 72.042 15.9602 72.3177 15.9602 72.7813V74.3171H15.4517V72.9059C15.4517 72.6159 15.319 72.4688 15.0473 72.4688C14.7818 72.4688 14.6103 72.6669 14.6103 72.9222V74.3171H14.1017V72.8691C14.1017 72.622 13.9486 72.4688 13.6994 72.4688C13.4482 72.4688 13.2644 72.6812 13.2644 72.959V74.3171H12.7558Z" fill="#091E42"/>
<rect x="5.24414" y="85.8169" width="19.8049" height="4.2439" rx="1.41463" fill="#EBEDF0"/>
<rect x="5.24414" y="101.378" width="19.8049" height="4.2439" rx="1.41463" fill="#EBEDF0"/>
<rect x="5.24414" y="116.939" width="19.8049" height="4.2439" rx="1.41463" fill="#EBEDF0"/>
<rect x="5.2439" y="132.5" width="19.8049" height="4.2439" rx="1.41463" fill="#EBEDF0"/>
<circle cx="11.8055" cy="25.0506" r="6.6226" fill="#EBEDF0"/>
<rect width="7" height="7" transform="translate(90 38)" fill="white" fill-opacity="0.01"/>
<path fill-rule="evenodd" clip-rule="evenodd" d="M92.4185 41.0022C92.3641 41.0573 92.3335 41.1316 92.3335 41.2091C92.3335 41.2866 92.3641 41.361 92.4185 41.4161L93.2757 42.2809C93.3393 42.3436 93.4216 42.3748 93.503 42.3748C93.5843 42.3748 93.6651 42.3436 93.7272 42.2809L94.5818 41.419C94.6362 41.3639 94.6668 41.2895 94.6668 41.212C94.6668 41.1346 94.6362 41.0602 94.5818 41.0051C94.555 40.9779 94.5231 40.9563 94.4879 40.9416C94.4527 40.9269 94.4149 40.9193 94.3768 40.9193C94.3386 40.9193 94.3009 40.9269 94.2657 40.9416C94.2305 40.9563 94.1985 40.9779 94.1717 41.0051L93.5015 41.6809L92.8286 41.0022C92.8018 40.9751 92.7698 40.9536 92.7346 40.939C92.6995 40.9243 92.6617 40.9167 92.6236 40.9167C92.5855 40.9167 92.5477 40.9243 92.5125 40.939C92.4773 40.9536 92.4454 40.9751 92.4185 41.0022Z" fill="#091E42"/>
<g filter="url(#filter0_dd_71_2766)">
<rect x="62" y="49" width="62" height="13" rx="0.553571" fill="#222222"/>
<rect x="61.9308" y="48.9308" width="62.1384" height="13.1384" rx="0.622768" stroke="black" stroke-opacity="0.1" stroke-width="0.138393"/>
</g>
<rect x="62.0692" y="49.0692" width="61.8616" height="12.8616" rx="0.484375" stroke="black" stroke-width="0.138393"/>
<path d="M91.0625 49.2771L93 47.3396L94.9375 49.2771H91.0625Z" fill="#222222"/>
<path d="M72.1239 53.9375H71.5845C71.5526 53.7823 71.4968 53.646 71.417 53.5286C71.3387 53.4111 71.243 53.3125 71.1299 53.2328C71.0183 53.1516 70.8943 53.0907 70.758 53.0501C70.6217 53.0095 70.4796 52.9892 70.3317 52.9892C70.062 52.9892 69.8176 53.0573 69.5987 53.1936C69.3812 53.3299 69.2079 53.5308 69.0788 53.7961C68.9512 54.0615 68.8874 54.387 68.8874 54.7727C68.8874 55.1584 68.9512 55.484 69.0788 55.7493C69.2079 56.0147 69.3812 56.2155 69.5987 56.3518C69.8176 56.4881 70.062 56.5563 70.3317 56.5563C70.4796 56.5563 70.6217 56.536 70.758 56.4954C70.8943 56.4548 71.0183 56.3946 71.1299 56.3149C71.243 56.2336 71.3387 56.1343 71.417 56.0169C71.4968 55.898 71.5526 55.7617 71.5845 55.608H72.1239C72.0833 55.8356 72.0094 56.0393 71.9021 56.2191C71.7948 56.399 71.6614 56.5519 71.5019 56.6781C71.3424 56.8028 71.1633 56.8978 70.9646 56.963C70.7674 57.0283 70.5564 57.0609 70.3317 57.0609C69.9518 57.0609 69.6139 56.9681 69.3181 56.7825C69.0223 56.5969 68.7896 56.333 68.6199 55.9908C68.4502 55.6486 68.3654 55.2425 68.3654 54.7727C68.3654 54.3029 68.4502 53.8969 68.6199 53.5547C68.7896 53.2125 69.0223 52.9486 69.3181 52.763C69.6139 52.5774 69.9518 52.4846 70.3317 52.4846C70.5564 52.4846 70.7674 52.5172 70.9646 52.5824C71.1633 52.6477 71.3424 52.7434 71.5019 52.8695C71.6614 52.9942 71.7948 53.1465 71.9021 53.3263C72.0094 53.5047 72.0833 53.7084 72.1239 53.9375ZM74.3139 57.0696C74.0123 57.0696 73.7476 56.9978 73.52 56.8543C73.2938 56.7107 73.1168 56.5099 72.9892 56.2518C72.8631 55.9937 72.8 55.6921 72.8 55.3469C72.8 54.9989 72.8631 54.6951 72.9892 54.4356C73.1168 54.176 73.2938 53.9745 73.52 53.8309C73.7476 53.6874 74.0123 53.6156 74.3139 53.6156C74.6155 53.6156 74.8794 53.6874 75.1056 53.8309C75.3332 53.9745 75.5102 54.176 75.6363 54.4356C75.7639 54.6951 75.8277 54.9989 75.8277 55.3469C75.8277 55.6921 75.7639 55.9937 75.6363 56.2518C75.5102 56.5099 75.3332 56.7107 75.1056 56.8543C74.8794 56.9978 74.6155 57.0696 74.3139 57.0696ZM74.3139 56.6085C74.543 56.6085 74.7315 56.5498 74.8794 56.4323C75.0273 56.3149 75.1368 56.1604 75.2078 55.969C75.2789 55.7776 75.3144 55.5703 75.3144 55.3469C75.3144 55.1236 75.2789 54.9156 75.2078 54.7227C75.1368 54.5298 75.0273 54.374 74.8794 54.2551C74.7315 54.1362 74.543 54.0767 74.3139 54.0767C74.0848 54.0767 73.8962 54.1362 73.7483 54.2551C73.6004 54.374 73.491 54.5298 73.4199 54.7227C73.3489 54.9156 73.3133 55.1236 73.3133 55.3469C73.3133 55.5703 73.3489 55.7776 73.4199 55.969C73.491 56.1604 73.6004 56.3149 73.7483 56.4323C73.8962 56.5498 74.0848 56.6085 74.3139 56.6085ZM76.6419 58.2528V53.6591H77.1378V54.1898H77.1987C77.2364 54.1318 77.2886 54.0579 77.3553 53.968C77.4235 53.8766 77.5206 53.7954 77.6468 53.7243C77.7744 53.6518 77.9469 53.6156 78.1645 53.6156C78.4458 53.6156 78.6937 53.6859 78.9083 53.8266C79.1229 53.9672 79.2904 54.1666 79.4108 54.4247C79.5311 54.6828 79.5913 54.9873 79.5913 55.3382C79.5913 55.6921 79.5311 55.9987 79.4108 56.2583C79.2904 56.5164 79.1237 56.7165 78.9105 56.8586C78.6973 56.9993 78.4516 57.0696 78.1732 57.0696C77.9585 57.0696 77.7867 57.0341 77.6577 56.963C77.5286 56.8905 77.4293 56.8086 77.3597 56.7172C77.2901 56.6244 77.2364 56.5476 77.1987 56.4867H77.1552V58.2528H76.6419ZM77.1465 55.3295C77.1465 55.5819 77.1835 55.8044 77.2575 55.9973C77.3314 56.1887 77.4394 56.3388 77.5815 56.4475C77.7236 56.5548 77.8976 56.6085 78.1036 56.6085C78.3182 56.6085 78.4972 56.5519 78.6408 56.4388C78.7858 56.3243 78.8946 56.1706 78.9671 55.9777C79.041 55.7834 79.078 55.5674 79.078 55.3295C79.078 55.0946 79.0417 54.8829 78.9692 54.6944C78.8982 54.5045 78.7902 54.3544 78.6451 54.2442C78.5016 54.1325 78.3211 54.0767 78.1036 54.0767C77.8947 54.0767 77.7193 54.1296 77.5772 54.2355C77.4351 54.3399 77.3278 54.4863 77.2553 54.6748C77.1828 54.8619 77.1465 55.0801 77.1465 55.3295ZM80.6159 58.2528C80.5289 58.2528 80.4514 58.2456 80.3832 58.2311C80.315 58.218 80.2679 58.205 80.2418 58.1919L80.3723 57.7395C80.497 57.7714 80.6072 57.783 80.7029 57.7743C80.7986 57.7656 80.8835 57.7228 80.9574 57.646C81.0328 57.5706 81.1017 57.4481 81.1641 57.2784L81.2598 57.0174L80.0243 53.6591H80.5811L81.5034 56.3214H81.5382L82.4604 53.6591H83.0172L81.5991 57.4872C81.5353 57.6598 81.4562 57.8026 81.362 57.9157C81.2677 58.0303 81.1583 58.1151 81.0335 58.1702C80.9103 58.2253 80.7711 58.2528 80.6159 58.2528ZM85.992 52.5455V57H85.4787V52.5455H85.992ZM86.9628 57V53.6591H87.4761V57H86.9628ZM87.2238 53.1023C87.1237 53.1023 87.0374 53.0682 86.9649 53C86.8939 52.9319 86.8584 52.85 86.8584 52.7543C86.8584 52.6586 86.8939 52.5766 86.9649 52.5085C87.0374 52.4403 87.1237 52.4062 87.2238 52.4062C87.3238 52.4062 87.4094 52.4403 87.4804 52.5085C87.5529 52.5766 87.5892 52.6586 87.5892 52.7543C87.5892 52.85 87.5529 52.9319 87.4804 53C87.4094 53.0682 87.3238 53.1023 87.2238 53.1023ZM88.9602 54.9902V57H88.4469V53.6591H88.9428V54.1811H88.9863C89.0646 54.0115 89.1835 53.8751 89.343 53.7722C89.5025 53.6678 89.7084 53.6156 89.9607 53.6156C90.1869 53.6156 90.3849 53.662 90.5545 53.7548C90.7242 53.8461 90.8561 53.9854 90.9504 54.1724C91.0446 54.358 91.0918 54.5929 91.0918 54.8771V57H90.5785V54.9119C90.5785 54.6495 90.5103 54.445 90.374 54.2986C90.2377 54.1507 90.0506 54.0767 89.8128 54.0767C89.649 54.0767 89.5025 54.1122 89.3735 54.1833C89.2459 54.2543 89.1451 54.358 89.0711 54.4943C88.9972 54.6306 88.9602 54.7959 88.9602 54.9902ZM92.5389 55.782L92.5302 55.1468H92.6346L94.0963 53.6591H94.7314L93.174 55.2338H93.1305L92.5389 55.782ZM92.0604 57V52.5455H92.5737V57H92.0604ZM94.1833 57L92.8782 55.3469L93.2436 54.9902L94.8358 57H94.1833Z" fill="white"/>
</g>
<rect x="0.5" y="0.5" width="291" height="187.732" rx="3.32927" stroke="#DFE1E6"/>
<defs>
<filter id="filter0_dd_71_2766" x="57.1562" y="45.5401" width="71.6876" height="22.6876" filterUnits="userSpaceOnUse" color-interpolation-filters="sRGB">
<feFlood flood-opacity="0" result="BackgroundImageFix"/>
<feColorMatrix in="SourceAlpha" type="matrix" values="0 0 0 0 0 0 0 0 0 0 0 0 0 0 0 0 0 0 127 0" result="hardAlpha"/>
<feOffset dy="1.38393"/>
<feGaussianBlur stdDeviation="2.35268"/>
<feColorMatrix type="matrix" values="0 0 0 0 0 0 0 0 0 0 0 0 0 0 0 0 0 0 0.2 0"/>
<feBlend mode="normal" in2="BackgroundImageFix" result="effect1_dropShadow_71_2766"/>
<feColorMatrix in="SourceAlpha" type="matrix" values="0 0 0 0 0 0 0 0 0 0 0 0 0 0 0 0 0 0 127 0" result="hardAlpha"/>
<feOffset dy="0.553571"/>
<feGaussianBlur stdDeviation="0.96875"/>
<feColorMatrix type="matrix" values="0 0 0 0 0 0 0 0 0 0 0 0 0 0 0 0 0 0 0.15 0"/>
<feBlend mode="normal" in2="effect1_dropShadow_71_2766" result="effect2_dropShadow_71_2766"/>
<feBlend mode="normal" in="SourceGraphic" in2="effect2_dropShadow_71_2766" result="shape"/>
</filter>
<clipPath id="clip0_71_2766">
<rect x="1" y="1" width="290" height="186.732" rx="2.82927" fill="white"/>
</clipPath>
</defs>
</svg>