<svg width="64" height="64" viewBox="0 0 64 64" fill="none"
  xmlns="http://www.w3.org/2000/svg">
  <g clip-path="url(#clip0_12_7153)">
    <path d="M24.5032 56.0004C28.9192 56.0004 32.5032 52.4163 32.5032 48.0002V40H24.5032C20.0872 40 16.5032 43.5841 16.5032 48.0002C16.5032 52.4163 20.0872 56.0004 24.5032 56.0004Z" fill="#0ACF83"/>
    <path d="M16.5032 31.9999C16.5032 27.584 20.0872 24 24.5032 24H32.5032V39.9999H24.5032C20.0872 39.9999 16.5032 36.4159 16.5032 31.9999Z" fill="#A259FF"/>
    <path d="M16.5032 16C16.5032 11.584 20.0872 8 24.5032 8H32.5032V24H24.5032C20.0872 24 16.5032 20.416 16.5032 16Z" fill="#F24E1E"/>
    <path d="M32.5032 8H40.5032C44.9193 8 48.5033 11.584 48.5033 16C48.5033 20.416 44.9193 24 40.5032 24H32.5032V8Z" fill="#FF7262"/>
    <path d="M48.5033 31.9999C48.5033 36.4159 44.9193 39.9999 40.5032 39.9999C36.0872 39.9999 32.5032 36.4159 32.5032 31.9999C32.5032 27.584 36.0872 24 40.5032 24C44.9193 24 48.5033 27.584 48.5033 31.9999Z" fill="#1ABCFE"/>
  </g>
  <defs>
    <clipPath id="clip0_12_7153">
      <rect width="32.0064" height="48" fill="white" transform="translate(16.5 8)"/>
    </clipPath>
  </defs>
</svg>