<svg width="65" height="64" viewBox="0 0 65 64" fill="none" xmlns="http://www.w3.org/2000/svg">
<rect width="56" height="49" transform="translate(4.5 8)" fill="white" fill-opacity="0.01"/>
<path d="M54.9012 31.1425L34.4738 10.0686L32.4687 8L17.1168 23.8377L10.0989 31.1425C9.34693 31.9182 9.34693 33.1464 10.0989 33.8575L24.1348 48.3377L32.4687 56.9353L47.8205 41.0976L48.0712 40.839L54.9012 33.8575C55.6531 33.0818 55.6531 31.8536 54.9012 31.1425ZM32.4687 39.7401L25.4507 32.5L32.4687 25.2599L39.4867 32.5L32.4687 39.7401Z" fill="#2684FF"/>
<path d="M32.4687 25.2598C27.8944 20.5408 27.8318 12.8482 32.406 8.06458L17.1168 23.9023L25.4507 32.4999L32.4687 25.2598Z" fill="url(#paint0_linear_12_7148)"/>
<path d="M39.5493 32.4353L32.4686 39.7401C37.1055 44.5237 37.1055 52.2163 32.4686 56.9999L47.8831 41.0976L39.5493 32.4353Z" fill="url(#paint1_linear_12_7148)"/>
<defs>
<linearGradient id="paint0_linear_12_7148" x1="31.24" y1="17.9196" x2="21.1331" y2="27.7164" gradientUnits="userSpaceOnUse">
<stop offset="0.176" stop-color="#0052CC"/>
<stop offset="1" stop-color="#2684FF"/>
</linearGradient>
<linearGradient id="paint1_linear_12_7148" x1="33.8343" y1="46.9669" x2="43.921" y2="37.1896" gradientUnits="userSpaceOnUse">
<stop offset="0.176" stop-color="#0052CC"/>
<stop offset="1" stop-color="#2684FF"/>
</linearGradient>
</defs>
</svg>
