<?xml version="1.0" encoding="UTF-8"?>
<svg width="120" height="160" viewBox="0 0 120 160" fill="none" xmlns="http://www.w3.org/2000/svg">
  <!-- Figma Logo -->
  <g transform="translate(36,0)">
    <path d="M24 0C10.8 0 0 10.8 0 24C0 37.2 10.8 48 24 48C37.2 48 48 37.2 48 24C48 10.8 37.2 0 24 0Z" fill="#F24E1E"/>
    <path d="M24 48C30.62 48 36 42.62 36 36V24H24C17.38 24 12 29.38 12 36C12 42.62 17.38 48 24 48Z" fill="#FF7262"/>
    <path d="M24 24H36V12C36 5.38 30.62 0 24 0C17.38 0 12 5.38 12 12C12 18.62 17.38 24 24 24Z" fill="#1ABCFE"/>
  </g>
  <!-- "for" text -->
  <text x="48" y="80" font-family="Arial" font-size="20" fill="#253858">for</text>
  <!-- Jira Logo -->
  <g transform="translate(36,100)">
    <path d="M23.7 0H11.5C11.5 6.4 16.7 11.6 23.1 11.6V2.3L34.9 14.1L23.1 25.9V16.6C13.9 16.6 6.4 9.1 6.4 0H0V24C0 37.3 10.7 48 24 48C37.3 48 48 37.3 48 24V0H23.7Z" fill="#2684FF"/>
    <path d="M23.1 2.3V11.6C16.7 11.6 11.5 6.4 11.5 0H23.7L23.1 2.3Z" fill="url(#paint0_linear)"/>
    <defs>
      <linearGradient id="paint0_linear" x1="17.4" y1="7.5" x2="23.5" y2="2.3" gradientUnits="userSpaceOnUse">
        <stop offset="0.18" stop-color="#0052CC"/>
        <stop offset="1" stop-color="#2684FF"/>
      </linearGradient>
    </defs>
  </g>
</svg>