<?xml version="1.0" encoding="UTF-8"?>
<svg width="200" height="48" viewBox="0 0 200 48" fill="none" xmlns="http://www.w3.org/2000/svg">
  <!-- Figma Logo -->
  <g transform="translate(0,0)">
    <path d="M12 0C5.4 0 0 5.4 0 12C0 18.6 5.4 24 12 24C18.6 24 24 18.6 24 12C24 5.4 18.6 0 12 0Z" fill="#F24E1E"/>
    <path d="M12 24C15.31 24 18 21.31 18 18V12H12C8.69 12 6 14.69 6 18C6 21.31 8.69 24 12 24Z" fill="#FF7262"/>
    <path d="M12 12H18V6C18 2.69 15.31 0 12 0C8.69 0 6 2.69 6 6C6 9.31 8.69 12 12 12Z" fill="#1ABCFE"/>
  </g>
  <!-- "for" text -->
  <text x="84" y="24" font-family="Arial" font-size="16" fill="#253858">for</text>
  <!-- Jira Logo -->
  <g transform="translate(120,0)">
    <path d="M23.7 0H11.5C11.5 6.4 16.7 11.6 23.1 11.6V2.3L34.9 14.1L23.1 25.9V16.6C13.9 16.6 6.4 9.1 6.4 0H0V24C0 37.3 10.7 48 24 48C37.3 48 48 37.3 48 24V0H23.7Z" fill="#2684FF"/>
    <path d="M23.1 2.3V11.6C16.7 11.6 11.5 6.4 11.5 0H23.7L23.1 2.3Z" fill="url(#paint0_linear)"/>
    <defs>
      <linearGradient id="paint0_linear" x1="17.4" y1="7.5" x2="23.5" y2="2.3" gradientUnits="userSpaceOnUse">
        <stop offset="0.18" stop-color="#0052CC"/>
        <stop offset="1" stop-color="#2684FF"/>
      </linearGradient>
    </defs>
  </g>
</svg>