<?xml version="1.0" encoding="UTF-8"?>
<svg width="100" height="140" viewBox="0 0 100 140" fill="none" xmlns="http://www.w3.org/2000/svg">
  <!-- Figma part -->
  <g transform="translate(25,0)">
    <path d="M25 0C11.2 0 0 11.2 0 25C0 38.8 11.2 50 25 50C38.8 50 50 38.8 50 25C50 11.2 38.8 0 25 0Z" fill="#1ABCFE"/>
    <path d="M12.5 25C12.5 19.8 16.7 15.6 21.9 15.6H31.2V34.4H21.9C16.7 34.4 12.5 30.2 12.5 25Z" fill="#0ACF83"/>
  </g>
  <!-- Connecting element -->
  <rect x="45" y="60" width="10" height="10" fill="#253858"/>
  <!-- Jira part -->
  <g transform="translate(25,80)">
    <path d="M48.6 25L26.4 0H25v50h1.4L48.6 25z" fill="#2684FF"/>
    <path d="M25 0H0v50h25V0z" fill="#0052CC"/>
  </g>
  <!-- Text -->
  <text x="50" y="150" text-anchor="middle" font-family="Arial, sans-serif" font-size="14" fill="#253858">Figma for Jira</text>
</svg>