<?xml version="1.0" encoding="UTF-8"?>
<svg width="64" height="64" viewBox="0 0 64 64" fill="none" xmlns="http://www.w3.org/2000/svg">
  <!-- Background circle -->
  <circle cx="32" cy="32" r="32" fill="#F4F5F7"/>
  <!-- Figma part (top) -->
  <g transform="translate(16,8) scale(0.6)">
    <path d="M16 0C7.16344 0 0 7.16344 0 16V32C0 40.8366 7.16344 48 16 48H32C40.8366 48 48 40.8366 48 32V16C48 7.16344 40.8366 0 32 0H16Z" fill="#1ABCFE"/>
    <path d="M24 24C24 20.6863 26.6863 18 30 18C33.3137 18 36 20.6863 36 24C36 27.3137 33.3137 30 30 30C26.6863 30 24 27.3137 24 24Z" fill="white"/>
    <path d="M12 24C12 20.6863 14.6863 18 18 18H24V30H18C14.6863 30 12 27.3137 12 24Z" fill="white"/>
    <path d="M12 12C12 8.68629 14.6863 6 18 6H24V18H18C14.6863 18 12 15.3137 12 12Z" fill="white"/>
    <path d="M24 6H30C33.3137 6 36 8.68629 36 12C36 15.3137 33.3137 18 30 18H24V6Z" fill="white"/>
    <path d="M12 36C12 32.6863 14.6863 30 18 30H24V36C24 39.3137 21.3137 42 18 42C14.6863 42 12 39.3137 12 36Z" fill="white"/>
  </g>
  <!-- Jira part (bottom) -->
  <g transform="translate(16,32) scale(0.6)">
    <path d="M47.3 0H24.7C24.7 0 24.7 0 24.7 0L36 11.3L24.7 22.6C24.7 22.6 24.7 22.6 24.7 22.6H47.3C47.3 22.6 47.3 22.6 47.3 22.6L36 11.3L47.3 0C47.3 0 47.3 0 47.3 0Z" fill="#2684FF"/>
    <path d="M36 11.3L24.7 0H13.7C13.7 0 13.7 0 13.7 0L36 22.6L13.7 45.2C13.7 45.2 13.7 45.2 13.7 45.2H24.7C24.7 45.2 24.7 45.2 24.7 45.2L47.3 22.6H24.7L36 11.3Z" fill="#2684FF"/>
    <path d="M13.7 0H2.7C1.2 0 0 1.2 0 2.7V42.5C0 44 1.2 45.2 2.7 45.2H13.7L36 22.6L13.7 0Z" fill="#2684FF"/>
  </g>
</svg>