<svg width="50" height="64" viewBox="0 0 50 64" fill="none" xmlns="http://www.w3.org/2000/svg">
<g clip-path="url(#clip0_18852_54048)">
<rect width="49.2921" height="64" transform="translate(0.353516)" fill="white" fill-opacity="0.01"/>
<path d="M28.9669 22.388L49.0243 57.1291C50.7873 60.1842 48.5835 64.0001 45.0575 64.0001H4.94276C1.41672 64.0001 -0.787052 60.1812 0.975967 57.1291L21.0333 22.388C22.7963 19.3329 27.2039 19.3329 28.9669 22.388ZM26.6846 47.6106L27.5541 34.222C27.6567 32.625 26.3888 31.2695 24.7888 31.2695C23.1858 31.2695 21.9179 32.622 22.0235 34.222L22.8929 47.6106C22.9594 48.6099 23.7865 49.3888 24.7888 49.3888C25.788 49.3888 26.6182 48.6099 26.6846 47.6106ZM21.9028 54.7171C21.9028 56.4257 23.3397 57.7661 25.0394 57.6091C26.5035 57.4733 27.6748 56.2506 27.705 54.7805C27.7382 53.1352 26.4039 51.7797 24.7677 51.7797C23.1888 51.7767 21.9028 53.0989 21.9028 54.7171Z" fill="url(#paint0_linear_18852_54048)"/>
<g opacity="0.6">
<path opacity="0.6" d="M28.3373 8.20227L26.1003 0.135855C26.049 -0.0513153 25.7773 -0.0392398 25.7411 0.150949L24.3343 7.72831L22.5833 7.40227C22.4505 7.37812 22.3358 7.50189 22.372 7.6317L24.609 15.6981C24.6603 15.8853 24.932 15.8732 24.9682 15.683L26.375 8.10567L28.126 8.4317C28.2618 8.45585 28.3735 8.33208 28.3373 8.20227Z" fill="#C1C7D0"/>
<path opacity="0.6" d="M20.3137 12.6218L17.0322 10.0407C16.9658 9.98633 16.8722 10.0618 16.9085 10.1403L18.5779 13.5909L17.7749 13.9803C17.7205 14.0075 17.7145 14.0799 17.7598 14.1161L21.0413 16.6973C21.1077 16.7516 21.2013 16.6761 21.1651 16.5976L19.4956 13.1471L20.2987 12.7576C20.35 12.7335 20.359 12.658 20.3137 12.6218Z" fill="#C1C7D0"/>
</g>
<g opacity="0.6">
<g opacity="0.6">
<path opacity="0.6" d="M31.1856 17.1321C31.1222 17.1321 31.0618 17.114 31.0075 17.0747C30.8928 16.9902 30.8535 16.8393 30.9079 16.7155C30.8354 16.483 30.2166 15.8551 29.8392 15.4747C28.9426 14.566 28.3509 13.9653 28.68 13.5155C29.009 13.0687 29.7607 13.4491 30.8988 14.0287C31.2973 14.231 31.9101 14.5419 32.2422 14.6415C32.049 14.3547 31.566 13.8627 31.252 13.5457C30.3554 12.637 29.7637 12.0362 30.0928 11.5864C30.4188 11.1396 31.1735 11.52 32.3086 12.0996C32.7071 12.3019 33.3169 12.6128 33.652 12.7125C33.4588 12.4257 32.9758 11.9366 32.6618 11.6196C31.7652 10.711 31.1735 10.1102 31.5026 9.66039C31.8286 9.2136 32.5803 9.59397 33.7184 10.1736C34.1954 10.4151 34.9803 10.8166 35.2218 10.8166C35.3245 10.7291 35.4784 10.72 35.5962 10.8045C35.732 10.9042 35.7592 11.0913 35.6626 11.2272C35.3335 11.674 34.5849 11.2936 33.4468 10.714C33.0483 10.5117 32.4385 10.2008 32.1064 10.1011C32.2996 10.3879 32.7826 10.877 33.0966 11.194C33.9932 12.1027 34.5849 12.7034 34.2558 13.1532C33.9298 13.6 33.1781 13.2196 32.04 12.64C31.6415 12.4377 31.0286 12.1268 30.6966 12.0272C30.8898 12.314 31.3728 12.803 31.6868 13.123C32.5834 14.0317 33.1751 14.6325 32.846 15.0823C32.5169 15.5291 31.7652 15.1487 30.6271 14.5691C30.2286 14.3668 29.6158 14.0528 29.2837 13.9562C29.4769 14.243 29.96 14.7351 30.2739 15.0521C31.1705 15.9608 31.7622 16.5615 31.4332 17.0113C31.3698 17.0898 31.2792 17.1321 31.1856 17.1321Z" fill="#B3BAC5"/>
</g>
</g>
<g opacity="0.6">
<path opacity="0.6" d="M32.8636 21.455C32.7579 21.455 32.6553 21.3976 32.5979 21.298C32.284 20.7305 31.9277 20.0844 32.3232 19.7252C32.7187 19.3629 33.3315 19.7795 33.9806 20.2173C34.2432 20.3954 34.6628 20.6792 34.8651 20.7335C34.8289 20.5282 34.5843 20.0844 34.4274 19.8067C34.047 19.1214 33.6877 18.4754 34.0832 18.1131C34.4787 17.7509 35.0915 18.1675 35.7406 18.6052C36.0304 18.8014 36.5074 19.1244 36.6764 19.1305C36.8002 19.0399 36.9723 19.055 37.0779 19.1697C37.1896 19.2935 37.1836 19.4837 37.0598 19.5954C36.6643 19.9576 36.0515 19.5441 35.4025 19.1033C35.1398 18.9252 34.7202 18.6414 34.5179 18.5871C34.5542 18.7924 34.7987 19.2361 34.9557 19.5139C35.336 20.1992 35.6953 20.8452 35.2998 21.2075C34.9043 21.5697 34.2915 21.1531 33.6425 20.7154C33.3798 20.5373 32.9602 20.2535 32.7579 20.1992C32.7942 20.4044 33.0387 20.8452 33.1262 21.0052C33.2077 21.1501 33.1534 21.3343 33.0085 21.4158C32.9632 21.4429 32.9119 21.455 32.8636 21.455Z" fill="#B3BAC5"/>
</g>
<g opacity="0.6">
<path opacity="0.6" d="M16.4655 20.5825C16.3991 20.5825 16.3327 20.5705 16.2633 20.5403C15.7682 20.332 15.8889 19.6014 16.0187 18.8286C16.0701 18.5146 16.1546 18.0135 16.1184 17.8082C15.9463 17.9259 15.6474 18.3365 15.4602 18.5931C14.9984 19.224 14.5576 19.8218 14.0655 19.6135C13.9116 19.5501 13.8391 19.372 13.9055 19.218C13.9659 19.0731 14.1259 19.0006 14.2708 19.0459C14.4278 18.9825 14.7689 18.5176 14.9772 18.2369C15.4391 17.6059 15.8769 17.0052 16.3719 17.2165C16.867 17.4248 16.7463 18.1554 16.6165 18.9282C16.5652 19.2422 16.4806 19.7433 16.5169 19.9486C16.6889 19.8308 16.9878 19.4203 17.175 19.1637C17.6369 18.5327 18.0746 17.932 18.5697 18.1433C19.0618 18.3516 18.944 19.0761 18.8384 19.7161C18.8112 19.8791 18.6572 19.9908 18.4912 19.9667C18.3282 19.9395 18.2135 19.7855 18.2406 19.6195C18.2708 19.4414 18.3523 18.9433 18.3191 18.738C18.147 18.8557 17.8482 19.2663 17.661 19.5229C17.2595 20.0633 16.8791 20.5825 16.4655 20.5825Z" fill="#B3BAC5"/>
</g>
</g>
<defs>
<linearGradient id="paint0_linear_18852_54048" x1="8.05802" y1="69.0176" x2="41.9415" y2="35.1341" gradientUnits="userSpaceOnUse">
<stop stop-color="#C1C7D0"/>
<stop offset="0.297" stop-color="#C6CBD4" stop-opacity="0.8812"/>
<stop offset="0.6301" stop-color="#D3D7DE" stop-opacity="0.748"/>
<stop offset="0.9795" stop-color="#E9EBEF" stop-opacity="0.6082"/>
<stop offset="1" stop-color="#EBECF0" stop-opacity="0.6"/>
</linearGradient>
<clipPath id="clip0_18852_54048">
<rect width="49.2921" height="64" fill="white" transform="translate(0.353516)"/>
</clipPath>
</defs>
</svg>
